<?xml version="1.0" encoding="UTF-8" standalone="no"?>
<!DOCTYPE svg PUBLIC "-//W3C//DTD SVG 1.1//EN" "http://www.w3.org/Graphics/SVG/1.1/DTD/svg11.dtd">
<svg width="100%" height="100%" viewBox="0 0 800 346" version="1.1" xmlns="http://www.w3.org/2000/svg" xmlns:xlink="http://www.w3.org/1999/xlink" xml:space="preserve" xmlns:serif="http://www.serif.com/" style="fill-rule:evenodd;clip-rule:evenodd;stroke-linejoin:round;stroke-miterlimit:2;">
    <rect id="FINAL-fusion-logo-export-size" serif:id="FINAL fusion logo export size" x="0" y="0" width="800" height="346" style="fill:none;"/>
    <path d="M38.774,175.907L38.774,342.552L1,342.552L1,127.756C1,68.7 42.511,17.78 100.367,5.877L100.379,5.875C180.27,-10.454 292.919,18.692 404.906,37.782C508.81,55.494 612.399,65.135 684.403,9.496L707.499,39.386C627.79,100.979 513.582,94.626 398.558,75.019C291.627,56.791 184.243,27.294 107.955,42.881C67.678,51.173 38.774,86.632 38.774,127.756L38.774,138.133L147.042,138.133L147.042,271.114C147.042,291.01 163.171,307.139 183.066,307.139L183.068,307.139C192.622,307.139 201.785,303.343 208.541,296.587C215.297,289.831 219.093,280.668 219.093,271.114L219.093,139.313L256.867,139.313L256.867,271.114C256.867,290.687 249.092,309.458 235.252,323.298C221.412,337.138 202.641,344.913 183.068,344.913L183.066,344.913C142.308,344.913 109.268,311.872 109.268,271.114L109.268,175.907L38.774,175.907ZM265.804,342.552L265.804,303.007L315.471,303.007C324.924,303.007 333.054,296.317 334.874,287.042C336.694,277.766 331.694,268.5 322.943,264.928L305.516,257.816C278.453,246.771 263.006,218.102 268.668,189.425C274.33,160.748 299.513,140.101 328.743,140.17L366.654,140.259L366.56,179.804L328.65,179.715C318.341,179.69 309.46,186.972 307.464,197.085C305.467,207.198 310.914,217.308 320.458,221.203L337.885,228.315C364.139,239.03 379.138,266.829 373.679,294.655C368.219,322.482 343.828,342.552 315.471,342.552L265.804,342.552ZM408,87.276C418.424,87.276 426.887,95.739 426.887,106.163C426.887,116.587 418.424,125.05 408,125.05C397.576,125.05 389.113,116.587 389.113,106.163C389.113,95.739 397.576,87.276 408,87.276ZM799,342.552L761.226,342.552L761.226,210.751C761.226,201.197 757.431,192.034 750.675,185.278C743.919,178.522 734.756,174.726 725.201,174.726L725.2,174.726C715.645,174.726 706.482,178.522 699.726,185.278C692.97,192.034 689.175,201.197 689.175,210.751L689.175,342.552L651.401,342.552L651.401,210.751C651.401,191.178 659.176,172.407 673.016,158.568C686.856,144.728 705.627,136.952 725.2,136.952L725.201,136.952C744.774,136.952 763.545,144.728 777.385,158.568C791.225,172.407 799,191.178 799,210.751L799,342.552ZM388.947,139.313L426.721,139.313L426.721,342.552L388.947,342.552L388.947,139.313ZM541.813,133.625C595.702,133.625 640.296,180.532 640.296,239.269C640.296,298.006 595.702,344.913 541.813,344.913C487.924,344.913 443.329,298.006 443.329,239.269C443.329,180.532 487.924,133.625 541.813,133.625ZM541.813,171.399C507.836,171.399 481.103,202.236 481.103,239.269C481.103,276.302 507.836,307.139 541.813,307.139C575.789,307.139 602.522,276.302 602.522,239.269C602.522,202.236 575.789,171.399 541.813,171.399Z" style="fill:rgb(90,233,212);"/>
</svg>
