<?xml version="1.0" encoding="UTF-8"?>
<svg version="1.1" xmlns="http://www.w3.org/2000/svg" width="1326" height="586">
<path d="M0 0 C-1.50871803 6.49278789 -3.0207209 12.98480472 -4.53491211 19.47631836 C-5.04867361 21.68057294 -5.56170797 23.88499714 -6.07397461 26.08959961 C-6.81428761 29.275036 -7.55729268 32.45983474 -8.30078125 35.64453125 C-8.52590897 36.61582474 -8.75103668 37.58711823 -8.98298645 38.58784485 C-10.50733201 45.10190924 -12.1980187 51.55731316 -14 58 C-19.75 57.125 -19.75 57.125 -22 56 C-21.84402344 55.16597656 -21.68804688 54.33195312 -21.52734375 53.47265625 C-20.1078553 45.26594489 -18.93222196 38.29461593 -22.625 30.625 C-26.36963228 26.4861959 -30.66096238 24.90990203 -36.12890625 24.56640625 C-37.60658111 24.54269048 -39.08477412 24.54221122 -40.5625 24.5625 C-41.74223389 24.57494751 -41.74223389 24.57494751 -42.94580078 24.58764648 C-60.28406209 25.08126872 -73.943266 32.9631616 -86 45 C-86.76054688 45.74894531 -87.52109375 46.49789062 -88.3046875 47.26953125 C-116.44228622 76.62415413 -124.97197053 122.86686003 -133 161 C-106.93 160.67 -80.86 160.34 -54 160 C-52.74369328 154.61833004 -52.74369328 154.61833004 -53.4375 151.75 C-55.99331694 148.88748502 -59.35072503 148.49589451 -63 148 C-65.69403438 147.8630152 -68.29930899 147.90354675 -71 148 C-71.99 146.02 -72.98 144.04 -74 142 C-68.7944113 139.99009774 -63.5880722 137.98215456 -58.38110352 135.97583008 C-56.61918994 135.29664777 -54.85746341 134.61697998 -53.09594727 133.93676758 C-40.77110601 129.17801921 -28.41006475 124.53194889 -16 120 C-13.7135788 156.61805071 -39.08767733 197.45568389 -55.14450073 229.26748657 C-80.50107389 272.9056896 -80.50107389 272.9056896 -87.25 319.9375 C-85.67887671 322.52985343 -84.91997848 323.15474307 -82 324 C-71.02723879 325.39653324 -61.05757967 319.69241626 -52.625 313.171875 C-48.28475926 309.58084249 -44.09117464 305.87224891 -40 302 C-39.31164062 301.35289062 -38.62328125 300.70578125 -37.9140625 300.0390625 C-21.48325827 284.12780939 -8.33902622 264.14532495 4 245 C4.48001465 244.25991699 4.9600293 243.51983398 5.45458984 242.75732422 C24.83197885 212.81515256 44.73351325 180.84161411 56.80078125 147.1328125 C57.05480713 146.43099854 57.30883301 145.72918457 57.57055664 145.00610352 C58.18956967 143.23536592 58.76148939 141.44834327 59.328125 139.66015625 C61.74010233 135.82240727 64.82775372 135.12159404 69 134 C69.92586914 133.74049561 70.85173828 133.48099121 71.80566406 133.21362305 C74.86292557 132.38079483 77.92847096 131.59095385 81 130.8125 C82.59134766 130.40354492 82.59134766 130.40354492 84.21484375 129.98632812 C86.80891612 129.32028252 89.40394715 128.6582757 92 128 C91.42402216 134.14506086 88.89706603 139.3956226 86.46875 144.9921875 C86.00572983 146.07373108 85.54270966 147.15527466 85.06565857 148.26959229 C84.06890462 150.59555522 83.0691202 152.92022137 82.06661987 155.24371338 C80.48559691 158.9083851 78.91255541 162.5764233 77.34204102 166.24560547 C74.23535612 173.50022665 71.11859943 180.7504919 68 188 C54.06690918 220.38934647 40.68267466 252.81855053 29.25 286.1875 C28.94695953 287.06953094 28.64391907 287.95156189 28.33169556 288.86032104 C27.46986344 291.37739507 26.61602309 293.89701136 25.765625 296.41796875 C25.51421249 297.15396301 25.26279999 297.88995728 25.00376892 298.64825439 C23.31621041 303.70252369 22.06545533 308.78017667 21 314 C24.20380526 316.86297491 26.60251942 318.95254212 31.04736328 319.04052734 C36.08066399 318.69934169 41.03736467 317.88537926 46 317 C46.18175781 316.21753906 46.36351562 315.43507813 46.55078125 314.62890625 C46.92783203 313.11103516 46.92783203 313.11103516 47.3125 311.5625 C47.55613281 310.55316406 47.79976562 309.54382813 48.05078125 308.50390625 C48.52064453 307.26447266 48.52064453 307.26447266 49 306 C49.99 305.67 50.98 305.34 52 305 C52.61875 306.06927734 52.61875 306.06927734 53.25 307.16015625 C60.04701561 318.43288527 68.39769298 325.93323741 81.375 329.3125 C91.0538541 331.06764432 100.23170223 330.75699439 109 326 C120.22322983 318.06803991 126.5428064 307.27553685 129.6875 294.125 C131.46205314 276.3794686 125.04206598 260.90948833 118.94873047 244.56787109 C111.80800247 225.24049666 107.06606404 206.86900092 115.6640625 187.01171875 C119.66734914 178.32662232 124.56133901 171.10733265 131 164 C131.75925781 163.09894531 132.51851562 162.19789063 133.30078125 161.26953125 C147.07195953 145.28955515 166.4326633 131.25013137 187.875 129.125 C197.97719118 128.65565041 207.71865115 129.91620651 217 134 C215.57250019 137.79049707 213.83763458 141.27122456 211.875 144.8125 C211.33617187 145.78832031 210.79734375 146.76414063 210.2421875 147.76953125 C209.62730469 148.87361328 209.62730469 148.87361328 209 150 C213.32045642 148.63095308 217.41267377 146.99999848 221.54296875 145.13671875 C222.15207596 144.86285843 222.76118317 144.58899811 223.38874817 144.30683899 C225.32289884 143.43643333 227.25521059 142.56202858 229.1875 141.6875 C230.4640748 141.11236843 231.74076667 140.53749663 233.01757812 139.96289062 C234.2760661 139.39588757 235.53452988 138.82883078 236.79296875 138.26171875 C237.40695526 137.98528534 238.02094177 137.70885193 238.65353394 137.42404175 C241.53549425 136.12378522 244.40880794 134.80849901 247.27197266 133.46728516 C248.25085449 133.01015137 249.22973633 132.55301758 250.23828125 132.08203125 C251.09075439 131.67831299 251.94322754 131.27459473 252.8215332 130.85864258 C255 130 255 130 258 130 C257.07805963 165.58689847 243.82489003 198.22842634 228.90930176 230.05889893 C216.90433933 255.68608512 204.97335159 281.24632866 195.3125 307.875 C195.06790039 308.54128418 194.82330078 309.20756836 194.57128906 309.89404297 C193.36139581 313.35807169 192.55885761 316.33020676 193 320 C193.66 320.99 194.32 321.98 195 323 C203.91 321.515 203.91 321.515 213 320 C215 324 215 324 215 328 C208.14387635 330.74410912 201.28556794 333.48267841 194.42441082 336.21417999 C191.23863193 337.48267517 188.05363921 338.75307217 184.87036133 340.02783203 C181.21140152 341.49298432 177.54916616 342.94983632 173.88671875 344.40625 C172.7428923 344.86559937 171.59906586 345.32494873 170.420578 345.79821777 C168.82926811 346.42887146 168.82926811 346.42887146 167.20581055 347.07226562 C166.27093307 347.44532837 165.3360556 347.81839111 164.37284851 348.20275879 C162 349 162 349 159 349 C159.61638976 313.52957134 175.04813372 279.78339065 189.98849487 248.30657959 C208.87138066 211.10520908 208.87138066 211.10520908 217.1875 171 C217.20876953 170.0409375 217.20876953 170.0409375 217.23046875 169.0625 C216.94144696 166.47599991 216.04202135 164.37234901 215 162 C203.71189402 164.41271426 203.71189402 164.41271426 195.125 171.48046875 C193.11189961 174.85675048 191.53236425 178.38457811 190 182 C189 183 189 183 185.4375 183.0625 C184.303125 183.041875 183.16875 183.02125 182 183 C180.51317716 178.53953148 182.61632193 175.01130953 184.26171875 170.80078125 C185.9594764 166.13898263 186.18881761 162.81531173 185 158 C181.04697032 154.04697032 176.82400395 153.79984201 171.4375 153.6875 C160.88643193 153.81762622 153.9850851 156.96349175 146.3359375 164.2265625 C139.43988195 172.41418698 135.55653088 182.30253979 135.73046875 193.0234375 C136.74780899 204.25841227 141.24967625 214.24398701 145.90234375 224.359375 C148.04363654 229.03669636 149.99527638 233.77469503 151.875 238.5625 C152.30389526 239.63238159 152.30389526 239.63238159 152.74145508 240.72387695 C160.06810871 259.57609798 157.6313925 279.20978511 149.66015625 297.5 C139.48738546 318.94659442 121.15268664 337.23170547 99 346 C86.11399504 350.56838015 70.80053932 353.00519129 58 347 C52.21958092 343.68254209 48.63981405 340.1243686 46 334 C45.53056765 331.34019198 45.28668517 328.68871721 45 326 C43.18580566 326.77863403 43.18580566 326.77863403 41.33496094 327.57299805 C36.79519336 329.52122235 32.25506927 331.46861467 27.71484375 333.41577148 C25.75967011 334.25441604 23.80458985 335.09327831 21.84960938 335.93237305 C16.35650975 338.28996872 10.8614652 340.64290955 5.36352539 342.98919678 C3.26312241 343.88747107 1.1653982 344.79166422 -0.93164062 345.69775391 C-2.00091797 346.15456543 -3.07019531 346.61137695 -4.171875 347.08203125 C-5.05456055 347.46206299 -5.93724609 347.84209473 -6.84667969 348.23364258 C-9 349 -9 349 -12 349 C-11.54930235 319.58173509 -2.32798996 291.6133842 7 264 C6.22398437 264.98097656 5.44796875 265.96195312 4.6484375 266.97265625 C-7.84110384 282.62858773 -21.37949003 298.01142256 -36.67578125 311.01171875 C-38.55161238 312.61642135 -40.39446781 314.24502796 -42.23046875 315.89453125 C-58.84757409 330.72282638 -82.15058856 351.47252001 -105.84765625 350.3203125 C-110.47818797 349.63119526 -113.17804599 347.88859893 -116.3125 344.5 C-121.21713909 337.23386801 -119.88215307 325.67601307 -118.58398438 317.32324219 C-112.49674501 287.00879014 -98.04074264 258.16058192 -84.9453125 230.37890625 C-84.6054834 229.65720749 -84.2656543 228.93550873 -83.91552734 228.19194031 C-82.26472824 224.68834653 -80.60755203 221.18808489 -78.93652344 217.6940918 C-72.77190567 206.78779207 -72.77190567 206.78779207 -71.80078125 195.00390625 C-72.29964844 194.19824219 -72.79851563 193.39257812 -73.3125 192.5625 C-76 188.05511811 -76 188.05511811 -76 186 C-76.98468262 186.03029297 -77.96936523 186.06058594 -78.98388672 186.09179688 C-98.99475912 186.70077747 -118.97754824 187.17656483 -139 187 C-139.0928125 188.06347656 -139.185625 189.12695312 -139.28125 190.22265625 C-140.02812248 196.13669338 -141.78433416 201.74351408 -143.5 207.4375 C-144.03403442 209.2150769 -144.03403442 209.2150769 -144.57885742 211.02856445 C-150.89531984 231.74529486 -158.59741687 251.49370453 -168 271 C-168.41894531 271.88026855 -168.83789062 272.76053711 -169.26953125 273.66748047 C-183.98301739 304.50157582 -203.4444255 332.40561452 -226 358 C-226.82628906 358.93972656 -227.65257812 359.87945312 -228.50390625 360.84765625 C-239.96769669 373.60314139 -251.96046172 386.58753165 -265.55078125 397.09765625 C-267.23635513 398.40686595 -268.87847944 399.7733386 -270.48046875 401.18359375 C-312.99106698 438.54139219 -370.73381452 460.45315597 -427.16259766 460.31567383 C-429.8653191 460.31251133 -432.56694367 460.33609091 -435.26953125 460.36132812 C-480.23395265 460.52371087 -519.42348246 441.55890462 -551.5 410.875 C-583.72497615 377.89732368 -595.68523176 336.08030731 -595.2109375 290.9921875 C-595.0650843 281.75791469 -594.15962046 272.97654398 -592 264 C-591.81727539 263.21334961 -591.63455078 262.42669922 -591.44628906 261.61621094 C-583.674053 229.36589808 -563.57995383 203.47562687 -535.89550781 185.64453125 C-504.21155061 166.44947261 -463.80091022 162.35685548 -428 170 C-427.21898926 170.16628906 -426.43797852 170.33257812 -425.63330078 170.50390625 C-386.92170031 179.08353451 -352.96193251 200.75780932 -323 226 C-322.45102051 226.45874512 -321.90204102 226.91749023 -321.33642578 227.39013672 C-314.32957033 233.25270019 -307.6106287 239.22966085 -301.22265625 245.7734375 C-299.23489808 247.76468909 -297.20236672 249.61320958 -295.0625 251.4375 C-287.75595626 257.70870354 -281.05198224 264.65127263 -274.80859375 271.97265625 C-272.63041508 274.41428634 -270.32751992 276.70048032 -268 279 C-264.45764807 282.50500785 -261.09462851 286.07835966 -257.8515625 289.859375 C-255.56402533 292.50403822 -253.22334324 295.09670244 -250.875 297.6875 C-250.06804687 298.57824219 -249.26109375 299.46898437 -248.4296875 300.38671875 C-246.01139037 302.98774894 -243.52681614 305.50465666 -241 308 C-230.88274376 286.40728051 -226.51602598 265.08010601 -234.1875 241.8125 C-243.19583583 218.34892759 -262.89395021 204.09417812 -285 194 C-298.16020421 188.34796033 -312.8230412 184.1576932 -327.0546875 182.48828125 C-328.02664063 182.32714844 -328.99859375 182.16601562 -330 182 C-331 180 -331 180 -330.48681641 178.13647461 C-330.19468262 177.39921143 -329.90254883 176.66194824 -329.6015625 175.90234375 C-329.28703125 175.10119141 -328.9725 174.30003906 -328.6484375 173.47460938 C-328.31070312 172.63736328 -327.97296875 171.80011719 -327.625 170.9375 C-327.295 170.09638672 -326.965 169.25527344 -326.625 168.38867188 C-324.1527349 162.1527349 -324.1527349 162.1527349 -323 161 C-320.88639683 160.90311269 -318.7694933 160.87813158 -316.65367126 160.87974548 C-315.98311425 160.87889106 -315.31255724 160.87803663 -314.62168032 160.87715632 C-312.35835602 160.87549963 -310.09510466 160.88102593 -307.83178711 160.88647461 C-306.21589662 160.88675647 -304.60000601 160.88659878 -302.9841156 160.8860321 C-298.5834776 160.88574407 -294.18286661 160.89164171 -289.78223491 160.89860606 C-285.1884479 160.90483866 -280.59466034 160.90544332 -276.00086975 160.90663147 C-267.29565229 160.90974506 -258.59044732 160.91795883 -249.88523537 160.92798096 C-239.97730082 160.93914123 -230.06936569 160.94465233 -220.16142642 160.94967639 C-199.7742773 160.96014142 -179.38713943 160.9777414 -159 161 C-158.79839264 159.97891144 -158.59678528 158.95782288 -158.3890686 157.90579224 C-158.11962632 156.54802307 -157.85012231 155.19026615 -157.58056641 153.83251953 C-157.4482814 153.16166824 -157.3159964 152.49081696 -157.17970276 151.79963684 C-153.84418314 135.02986548 -148.2011562 119.47449151 -141 104 C-140.49315674 102.90365234 -140.49315674 102.90365234 -139.97607422 101.78515625 C-120.75056888 60.63280402 -86.99521902 19.1729166 -43.3269043 3.30712891 C-29.39429001 -1.44272116 -14.30179467 -4.19339847 0 0 Z M-550 209 C-550.60199219 209.53882813 -551.20398438 210.07765625 -551.82421875 210.6328125 C-572.30474984 229.63339846 -582.05323654 258.85407842 -583.28515625 286.13671875 C-584.26626579 323.58707132 -572.39955101 357.8089767 -546.73828125 385.18359375 C-545.38283203 386.57771484 -545.38283203 386.57771484 -544 388 C-543.46358887 388.55977539 -542.92717773 389.11955078 -542.37451172 389.69628906 C-538.34900598 393.82924718 -534.13465262 397.44406324 -529.5 400.875 C-528.80712891 401.3896582 -528.11425781 401.90431641 -527.40039062 402.43457031 C-520.54268403 407.45172078 -513.4430225 411.90730425 -506 416 C-505.3822168 416.3398291 -504.76443359 416.6796582 -504.12792969 417.02978516 C-485.14971789 427.3051453 -465.1258926 433.79460356 -444 438 C-443.11280273 438.17934082 -442.22560547 438.35868164 -441.31152344 438.54345703 C-414.92316277 443.59345308 -382.98414064 444.17513493 -357 437 C-355.94780273 436.7097998 -354.89560547 436.41959961 -353.81152344 436.12060547 C-311.49723458 424.00549793 -275.25591132 397.31403819 -248 363 C-247.07728025 361.87745771 -246.15271582 360.75642985 -245.2265625 359.63671875 C-216.21775837 324.35183237 -195.18827033 282.9040921 -180 240 C-179.65195312 239.01773438 -179.30390625 238.03546875 -178.9453125 237.0234375 C-169.30972623 212.5123668 -169.30972623 212.5123668 -165 187 C-173.60870562 186.86690822 -182.21744555 186.73640286 -190.82623482 186.60884857 C-194.82737216 186.54949091 -198.82849445 186.48937166 -202.82958984 186.42724609 C-223.55505331 186.10610792 -244.27181885 185.92416341 -265 186 C-262.25491487 188.78542225 -259.48116175 191.24731918 -256.375 193.625 C-238.2672836 208.06869167 -222.97498236 228.44564937 -220 252 C-218.61856096 267.66664647 -220.41338572 282.02252375 -225 297 C-225.2357373 297.79229004 -225.47147461 298.58458008 -225.71435547 299.40087891 C-230.72376149 315.89825068 -238.30240055 331.6048011 -246 347 C-249.76381862 345.49278852 -251.58463482 343.35083069 -254.0625 340.1875 C-254.84753906 339.20265625 -255.63257813 338.2178125 -256.44140625 337.203125 C-256.85664551 336.68041016 -257.27188477 336.15769531 -257.69970703 335.61914062 C-259.92076514 332.85345204 -262.20769998 330.14421583 -264.5 327.4375 C-264.96317627 326.89029297 -265.42635254 326.34308594 -265.90356445 325.77929688 C-269.51422731 321.532798 -273.2162605 317.37542495 -276.96484375 313.25 C-278.77377543 311.25010625 -280.54891801 309.22730568 -282.3125 307.1875 C-292.10446211 295.98890073 -302.46157745 285.37823919 -312.9921875 274.87744141 C-315.26419369 272.61084007 -317.53074444 270.33888041 -319.796875 268.06640625 C-321.26530417 266.59863729 -322.7340432 265.13117824 -324.203125 263.6640625 C-324.86789856 262.99726471 -325.53267212 262.33046692 -326.21759033 261.64346313 C-330.65130868 257.23153535 -335.25228405 253.07072099 -340 249 C-340.51584152 248.5512854 -341.03168304 248.1025708 -341.56315613 247.64025879 C-350.72523196 239.67408321 -360.25798541 232.24080491 -370 225 C-370.68578125 224.48791992 -371.3715625 223.97583984 -372.078125 223.44824219 C-423.95494716 184.96138224 -496.96278385 158.28490364 -550 209 Z " fill="#33637F" transform="translate(659,64)"/>
<path d="M0 0 C1.3161731 -0.01522705 1.3161731 -0.01522705 2.65893555 -0.03076172 C7.71709172 0.03891121 11.33535899 0.59238919 15.6875 3.4375 C18.14632182 6.92744064 18.7376163 8.72334277 18.4375 13 C18.06625 14.7015625 18.06625 14.7015625 17.6875 16.4375 C17.35186178 18.10370403 17.01809256 19.77028752 16.6875 21.4375 C17.63923599 21.06165771 17.63923599 21.06165771 18.61019897 20.67822266 C25.19426012 18.07893124 31.78016888 15.48436543 38.3671875 12.89257812 C40.8276294 11.92374661 43.28759216 10.95369737 45.74707031 9.98242188 C49.27544917 8.58926665 52.80550899 7.20045152 56.3359375 5.8125 C57.44117767 5.37502441 58.54641785 4.93754883 59.68515015 4.48681641 C60.70605743 4.08640137 61.72696472 3.68598633 62.77880859 3.2734375 C64.13116104 2.74049072 64.13116104 2.74049072 65.51083374 2.19677734 C67.6875 1.4375 67.6875 1.4375 69.6875 1.4375 C69.31137931 30.12525084 60.66933311 57.12836279 52.6875 84.4375 C53.0175 84.7675 53.3475 85.0975 53.6875 85.4375 C54.44933594 84.53128906 55.21117187 83.62507813 55.99609375 82.69140625 C61.3444634 76.36799637 66.73072539 70.23008555 72.671875 64.44921875 C74.63081351 62.49407663 76.44729286 60.47409818 78.25 58.375 C83.5794996 52.18590369 89.38354886 46.5808034 95.58203125 41.26953125 C97.03980247 40.00108097 98.47346355 38.7045855 99.88671875 37.38671875 C118.17101825 20.37174252 143.45089216 1.25542814 169.53125 2.14453125 C174.07067202 2.76130055 177.84824445 4.85107194 180.6875 8.4375 C189.05502035 33.54006105 164.00228969 71.7687299 153.6875 93.4375 C153.33562622 94.17693848 152.98375244 94.91637695 152.62121582 95.67822266 C151.08445606 98.90722253 149.54718592 102.1359793 148.00987244 105.36471558 C146.79812681 107.90975257 145.58655457 110.45487205 144.375 113 C143.97246002 113.84532288 143.56992004 114.69064575 143.15518188 115.56158447 C137.33242853 127.7947686 131.58206848 140.05854446 125.9375 152.375 C125.45704727 153.41927658 125.45704727 153.41927658 124.96688843 154.48464966 C121.42416102 162.19264168 117.98230277 169.94313525 114.671875 177.75390625 C114.35752502 178.47762924 114.04317505 179.20135223 113.71929932 179.94700623 C111.88760733 184.09012859 111.88760733 184.09012859 112.6875 188.4375 C116.11484381 189.57994794 116.62012259 189.32869997 119.8125 188.00390625 C120.60140625 187.68486328 121.3903125 187.36582031 122.203125 187.03710938 C123.02296875 186.69486328 123.8428125 186.35261719 124.6875 186 C126.3106263 185.33007759 127.93556186 184.66451757 129.5625 184.00390625 C130.28179688 183.70427979 131.00109375 183.40465332 131.7421875 183.09594727 C133.6875 182.4375 133.6875 182.4375 136.6875 182.4375 C138.1725 188.3775 138.1725 188.3775 139.6875 194.4375 C121.3245203 204.74850322 102.02480379 212.6096594 82.1875 219.625 C81.3632251 219.91656982 80.5389502 220.20813965 79.68969727 220.50854492 C76.57844427 221.57734166 74.00088084 222.4375 70.6875 222.4375 C70.58003178 217.06408893 70.85685777 211.98708702 71.8125 206.6875 C71.94301758 205.96288574 72.07353516 205.23827148 72.20800781 204.49169922 C78.55706917 171.38789039 94.18162822 140.46334999 108.78868103 110.4128418 C122.38879616 82.56293714 122.38879616 82.56293714 134.6875 54.125 C135.0906543 53.13016602 135.49380859 52.13533203 135.90917969 51.11035156 C137.83772518 46.18453215 139.22169313 41.7142184 139.6875 36.4375 C138.0010951 35.19851407 138.0010951 35.19851407 135.6875 34.4375 C123.03520899 37.57707296 112.64057154 46.0912486 103.41015625 54.8671875 C101.28150876 56.87672846 99.13732972 58.77262265 96.875 60.625 C93.88048453 63.16926613 91.34331027 65.95364389 88.8046875 68.94921875 C87.18629239 70.8512809 85.5479416 72.72162289 83.8828125 74.58203125 C75.52262722 83.97840851 67.91901986 93.84074222 60.48681641 103.98242188 C58.82553689 106.24915551 57.15395708 108.5079011 55.48046875 110.765625 C35.56605404 137.80908125 14.04928079 167.41037344 1.5078125 198.6875 C1.17426758 199.5110498 0.84072266 200.33459961 0.49707031 201.18310547 C-0.10296147 202.71077258 -0.67174708 204.25129438 -1.20019531 205.80517578 C-2.43324501 208.9772595 -3.40877412 210.89346814 -6.37597656 212.6796875 C-8.99027261 213.75903164 -11.60529462 214.61937041 -14.3125 215.4375 C-15.24980957 215.75283691 -16.18711914 216.06817383 -17.15283203 216.39306641 C-20.0295252 217.35879597 -22.91745569 218.27840927 -25.8125 219.1875 C-27.29363281 219.66123047 -27.29363281 219.66123047 -28.8046875 220.14453125 C-36.0508658 222.4375 -36.0508658 222.4375 -38.3125 222.4375 C-37.68351581 218.7504803 -36.6568108 215.53299393 -35.22265625 212.08203125 C-34.77752686 211.00679199 -34.33239746 209.93155273 -33.8737793 208.82373047 C-33.37918213 207.64439941 -32.88458496 206.46506836 -32.375 205.25 C-31.84598393 203.98068406 -31.31709799 202.71131387 -30.78833008 201.44189453 C-26.0948945 190.20272328 -21.29974951 179.0065761 -16.5 167.8125 C-16.11615143 166.91727631 -15.73230286 166.02205261 -15.33682251 165.09970093 C-11.66731429 156.54525161 -7.99221534 147.99334599 -4.28205872 139.45643616 C21.2265761 90.33335538 21.2265761 90.33335538 28.6875 38.4375 C26.98383619 35.63827901 26.20627507 34.63994881 23.125 33.4375 C18.12999271 33.4375 14.17426054 35.37146204 9.6875 37.4375 C8.6819239 35.98300599 7.68319565 34.52377557 6.6875 33.0625 C6.130625 32.25039062 5.57375 31.43828125 5 30.6015625 C3.6875 28.4375 3.6875 28.4375 3.6875 26.4375 C4.6775 26.1075 5.6675 25.7775 6.6875 25.4375 C-17.11351941 24.74685096 -17.11351941 24.74685096 -40.3125 29.4375 C-40.98490723 29.64648926 -41.65731445 29.85547852 -42.35009766 30.07080078 C-66.87857244 37.8915588 -89.23303984 54.40932285 -105.3125 74.4375 C-106.46492187 75.85095703 -106.46492187 75.85095703 -107.640625 77.29296875 C-127.43108543 101.98878981 -139.64979345 131.61911232 -139.6875 163.5 C-139.71199219 164.59376953 -139.73648438 165.68753906 -139.76171875 166.81445312 C-139.79678971 176.64016723 -137.60536837 185.66395672 -131.3125 193.4375 C-126.59903159 198.11179831 -121.94499268 200.70333352 -115.25 200.875 C-100.72805224 200.5436267 -88.63148065 190.44519902 -78.9765625 180.453125 C-55.52147824 154.52627675 -27.72449387 113.84881256 -29.4375 77.625 C-30.11865861 71.07478868 -31.57584766 66.01317279 -36.4375 61.4375 C-41.62485187 59.6332037 -46.53738931 59.2697554 -51.6796875 61.43359375 C-64.95003974 69.53815143 -73.06895788 86.23383919 -78.3125 100.4375 C-78.9725 100.4375 -79.6325 100.4375 -80.3125 100.4375 C-82.53156896 88.38597103 -82.08844251 78.63745861 -75.2421875 68.31640625 C-65.10699453 54.14983623 -48.82910846 38.36184403 -31.3125 34.4375 C-23.41775349 33.58715882 -15.75991764 33.29405446 -9.3125 38.4375 C0.06209893 47.00027799 3.11687823 57.53780256 3.91015625 69.91015625 C4.82358542 107.67846683 -17.7133271 139.37012289 -42.62109375 165.67138672 C-52.02214622 175.48767044 -61.40797561 185.27477413 -72.3125 193.4375 C-72.828125 193.82953613 -73.34375 194.22157227 -73.875 194.62548828 C-96.35606973 211.63872708 -122.22006338 224.73003271 -151.19140625 221.07421875 C-158.3891539 219.41839887 -163.6721353 215.06517634 -168.3125 209.4375 C-178.07798004 191.96714581 -175.95129757 168.56961606 -170.98828125 149.82128906 C-162.47800091 119.80164411 -145.25437484 94.61263476 -124.42578125 71.76953125 C-122.53873463 69.68715264 -120.70191767 67.57246936 -118.875 65.4375 C-112.2633591 57.86166147 -105.02496024 50.88113613 -97.3125 44.4375 C-96.77947266 43.98536133 -96.24644531 43.53322266 -95.69726562 43.06738281 C-68.43035423 20.00104966 -36.75508912 0.30192942 0 0 Z " fill="#33637F" transform="translate(1083.3125,192.5625)"/>
<path d="M0 0 C19.8 0 39.6 0 60 0 C60 3.63 60 7.26 60 11 C45.15 11 30.3 11 15 11 C15 13.64 15 16.28 15 19 C28.86 19 42.72 19 57 19 C57 22.63 57 26.26 57 30 C43.14 30 29.28 30 15 30 C15 33.3 15 36.6 15 40 C30.18 40 45.36 40 61 40 C61 43.3 61 46.6 61 50 C40.87 50 20.74 50 0 50 C0 33.5 0 17 0 0 Z " fill="#EF4242" transform="translate(1200,440)"/>
<path d="M0 0 C14 0 14 0 17.4921875 1.94140625 C18.27851562 2.80636719 19.06484375 3.67132813 19.875 4.5625 C20.75929688 5.48160156 21.64359375 6.40070313 22.5546875 7.34765625 C23.36164062 8.22292969 24.16859375 9.09820312 25 10 C26.31441834 11.18793658 27.64616498 12.35718785 29 13.5 C33.19966033 17.14547835 37.29214408 20.90522647 41.38671875 24.66796875 C43.84948682 26.86568555 46.42251947 28.93801557 49 31 C49.33 20.77 49.66 10.54 50 0 C54.62 0 59.24 0 64 0 C64 16.5 64 33 64 50 C50 50 50 50 45.75 47.0625 C44.48375398 45.72351218 43.23464137 44.36818421 42 43 C40.38936634 41.52581537 38.76347521 40.06817708 37.125 38.625 C34.53128834 36.28666918 31.94003332 33.94569389 29.3515625 31.6015625 C28.06378906 30.43753906 28.06378906 30.43753906 26.75 29.25 C25.98171875 28.55390625 25.2134375 27.8578125 24.421875 27.140625 C21.66415447 24.70315589 18.82745908 22.3562159 16 20 C15.67 29.9 15.34 39.8 15 50 C10.05 50 5.1 50 0 50 C0 33.5 0 17 0 0 Z " fill="#EF4242" transform="translate(933,440)"/>
<path d="M0 0 C14 0 14 0 18.25 2.9375 C19.51624602 4.27648782 20.76535863 5.63181579 22 7 C23.61063366 8.47418463 25.23652479 9.93182292 26.875 11.375 C29.45621621 13.70245609 32.03545895 16.03206676 34.61328125 18.36328125 C35.46277344 19.13027344 36.31226563 19.89726562 37.1875 20.6875 C37.94417969 21.37199219 38.70085938 22.05648438 39.48046875 22.76171875 C42.61772983 25.54877394 45.81382748 28.26899499 49 31 C49.33 20.77 49.66 10.54 50 0 C54.62 0 59.24 0 64 0 C64 16.5 64 33 64 50 C50 50 50 50 46.5078125 48.05859375 C45.72148438 47.19363281 44.93515625 46.32867187 44.125 45.4375 C43.24070312 44.51839844 42.35640625 43.59929687 41.4453125 42.65234375 C40.63835938 41.77707031 39.83140625 40.90179688 39 40 C37.68558166 38.81206342 36.35383502 37.64281215 35 36.5 C30.7650478 32.82504148 26.6417359 29.03039703 22.515625 25.234375 C19.82556407 22.78306769 19.82556407 22.78306769 16 20 C15.67 29.9 15.34 39.8 15 50 C10.05 50 5.1 50 0 50 C0 33.5 0 17 0 0 Z " fill="#EF4242" transform="translate(683,440)"/>
<path d="M0 0 C4.26009266 3.26286357 6.12744082 6.60805205 7.83984375 11.64453125 C6.27867556 11.98404744 4.71583037 12.31585669 3.15234375 12.64453125 C2.28222656 12.83015625 1.41210938 13.01578125 0.515625 13.20703125 C-2.13984195 13.64120979 -4.47851535 13.88748333 -7.16015625 13.64453125 C-8.50438964 11.9866434 -9.83634108 10.31876808 -11.16015625 8.64453125 C-16.19148308 6.00668742 -20.39448866 5.1513415 -26.09765625 5.26953125 C-27.15098145 5.28367065 -27.15098145 5.28367065 -28.22558594 5.2980957 C-34.85307321 5.49125633 -39.49634992 6.32223856 -44.59765625 10.76953125 C-46.72950434 14.69213174 -47.37227348 18.19006938 -47.16015625 22.64453125 C-45.77286304 26.39022291 -44.20796878 29.08270249 -41.16015625 31.64453125 C-32.35644831 35.10059107 -24.15500256 35.88802275 -15.20703125 32.6328125 C-11.02427518 30.6132757 -8.6783239 27.42178273 -6.16015625 23.64453125 C1.26484375 24.63453125 1.26484375 24.63453125 8.83984375 25.64453125 C6.4246529 32.89010379 3.74846582 37.52016638 -3.078125 41.23046875 C-17.20288881 47.30148524 -32.55005727 47.23206548 -47.16015625 42.64453125 C-53.77716691 39.75422099 -59.1404658 34.81533037 -62.30078125 28.2890625 C-64.26667161 22.23948171 -64.22090544 15.11273438 -61.59765625 9.26953125 C-57.10639575 1.72671745 -50.34315724 -1.79005847 -42.16015625 -4.35546875 C-28.88602284 -7.38614355 -11.72728467 -7.35871208 0 0 Z " fill="#EF4242" transform="translate(1127.16015625,445.35546875)"/>
<path d="M0 0 C4.79254368 0.08775767 6.75493323 0.32067735 10.19140625 3.7421875 C12.42435867 6.93825899 14.2941477 10.3433744 16.17236328 13.75634766 C18.53340643 17.85756383 21.29054114 21.68662146 24 25.5625 C25.099586 27.16273821 26.1972577 28.76429356 27.29296875 30.3671875 C27.82712402 31.14803711 28.3612793 31.92888672 28.91162109 32.73339844 C31.39450364 36.37414536 33.85984048 40.02633527 36.3125 43.6875 C36.95251953 44.63786133 36.95251953 44.63786133 37.60546875 45.60742188 C40.5 49.94436215 40.5 49.94436215 40.5 51.0625 C27.90496277 52.38198009 27.90496277 52.38198009 22.5 51.0625 C18.8678423 47.92493399 17.05750987 44.57250684 15.5 40.0625 C15.5 39.4025 15.5 38.7425 15.5 38.0625 C5.6 38.0625 -4.3 38.0625 -14.5 38.0625 C-15.9438433 41.64691883 -15.9438433 41.64691883 -17.19140625 45.30078125 C-18.32870295 48.00887339 -19.10900535 49.29505611 -21.5 51.0625 C-27.07745597 52.11222202 -32.88262106 51.50842203 -38.5 51.0625 C-35.00054483 44.22006936 -31.06669593 37.76769632 -26.75439453 31.41503906 C-22.06013861 24.47721774 -17.60222202 17.39223565 -13.14648438 10.29956055 C-12.57220703 9.38988525 -11.99792969 8.48020996 -11.40625 7.54296875 C-10.89384766 6.72723389 -10.38144531 5.91149902 -9.85351562 5.07104492 C-7.03294452 0.885468 -4.95434229 0.46850846 0 0 Z M-0.5 15.0625 C-1.66927543 17.04012655 -2.83535573 19.01964258 -4 21 C-4.6496875 22.10214844 -5.299375 23.20429688 -5.96875 24.33984375 C-7.58170031 26.6871493 -7.58170031 26.6871493 -7.5 28.0625 C-2.22 28.0625 3.06 28.0625 8.5 28.0625 C7.38625 26.103125 6.2725 24.14375 5.125 22.125 C4.49851562 21.02285156 3.87203125 19.92070312 3.2265625 18.78515625 C1.78101386 15.98806953 1.78101386 15.98806953 -0.5 15.0625 Z " fill="#EF4242" transform="translate(839.5,438.9375)"/>
<path d="M0 0 C18.15 0 36.3 0 55 0 C55 3.63 55 7.26 55 11 C41.8 11 28.6 11 15 11 C15 13.64 15 16.28 15 19 C26.55 19 38.1 19 50 19 C50 22.63 50 26.26 50 30 C38.45 30 26.9 30 15 30 C15 36.6 15 43.2 15 50 C10.05 50 5.1 50 0 50 C0 33.5 0 17 0 0 Z " fill="#EF4242" transform="translate(475,440)"/>
<path d="M0 0 C4.95 0 9.9 0 15 0 C15 16.5 15 33 15 50 C10.05 50 5.1 50 0 50 C0 33.5 0 17 0 0 Z " fill="#EF4242" transform="translate(598,440)"/>
<path d="M0 0 C3.26487173 2.70517943 4.03617336 5.52094476 4.5234375 9.6796875 C4.65857952 20.08562282 4.65857952 20.08562282 1.7109375 24.33984375 C-2.06333285 27.98830509 -6.7966797 30.46207018 -12.03125 31.0703125 C-17.36806802 30.72136671 -20.20059163 28.42440837 -23.8125 24.8125 C-25.88181376 20.67387249 -25.10732611 16.09265718 -23.75 11.8125 C-21.49147366 6.31068702 -17.424399 2.31434192 -12.3125 -0.625 C-7.85153249 -1.62871769 -4.25330501 -1.79583989 0 0 Z " fill="#33637F" transform="translate(938.8125,127.1875)"/>
</svg>
